<svg width="424" height="217" viewBox="0 0 424 217" fill="none" xmlns="http://www.w3.org/2000/svg">
<g clip-path="url(#clip0_1_14)">
<mask id="mask0_1_14" style="mask-type:alpha" maskUnits="userSpaceOnUse" x="0" y="0" width="424" height="217">
<rect width="424" height="217" fill="#D9D9D9"/>
</mask>
<g mask="url(#mask0_1_14)">
<mask id="mask1_1_14" style="mask-type:luminance" maskUnits="userSpaceOnUse" x="36" y="30" width="1370" height="156">
<path d="M38.2008 123.54L36 143.327L38.2008 163.114C38.2008 164.213 39.3012 164.213 39.3012 164.213C40.4016 164.213 40.4016 163.114 40.4016 163.114L43.7028 143.327L40.4016 123.54C40.4016 122.44 39.3012 122.44 39.3012 122.44C39.3012 122.44 38.2008 122.44 38.2008 123.54ZM51.4056 111.448L48.1044 143.327L51.4056 175.206C51.4056 176.306 52.506 176.306 52.506 176.306C53.6064 176.306 53.6064 175.206 53.6064 175.206L58.008 143.327L53.6064 111.448C53.6064 110.348 52.506 110.348 52.506 110.348C52.506 110.348 51.4056 111.448 51.4056 111.448ZM93.2209 107.05L91.0201 143.327L93.2209 181.802C93.2209 182.901 94.3213 184.001 95.4217 184.001C96.5221 184.001 97.6225 182.901 97.6225 181.802L102.024 143.327L98.7229 107.05C98.7229 105.951 97.6225 104.852 96.5221 104.852C94.3213 104.852 93.2209 105.951 93.2209 107.05ZM65.7108 104.852L62.4096 143.327L65.7108 179.604C65.7108 180.703 66.8112 181.802 67.9116 181.802C67.9116 181.802 69.012 180.703 69.012 179.604L72.3133 143.327L69.012 104.852C69.012 103.752 67.9116 102.653 66.8112 102.653C66.8112 103.752 65.7108 103.752 65.7108 104.852ZM78.9157 103.752L75.6145 143.327L78.9157 180.703C78.9157 181.802 80.0161 182.901 81.1165 182.901C82.2169 182.901 83.3173 181.802 83.3173 180.703L86.6185 143.327L83.3173 103.752C83.3173 102.653 82.2169 101.554 81.1165 101.554C80.0161 101.554 80.0161 102.653 78.9157 103.752ZM107.526 83.9653L104.225 143.327L107.526 181.802C107.526 182.901 108.627 184.001 109.727 184.001C111.928 184.001 113.028 182.901 113.028 181.802L116.329 143.327L113.028 83.9653C113.028 82.866 111.928 81.7667 110.827 81.7667C108.627 81.7667 107.526 82.866 107.526 83.9653ZM121.831 70.7738L119.631 143.327L121.831 181.802C121.831 184.001 122.932 185.1 125.133 185.1C126.233 185.1 128.434 184.001 128.434 181.802L131.735 143.327L128.434 70.7738C128.434 68.5752 127.333 67.4759 125.133 67.4759C122.932 67.4759 121.831 68.5752 121.831 70.7738ZM800.779 66.3766V108.15V130.135C799.679 127.937 796.378 122.44 794.177 119.143L758.964 66.3766H740.257V166.412H760.064V122.44V100.455C761.165 102.653 764.466 108.15 766.667 111.448L802.98 166.412H820.586V66.3766H800.779ZM866.803 86.1638H877.807C898.715 86.1638 907.518 96.0575 907.518 116.944C907.518 135.632 897.614 147.724 876.707 147.724H866.803V86.1638ZM846.996 166.412H876.707C902.016 166.412 928.426 152.121 928.426 116.944C928.426 80.6674 907.518 67.4759 878.908 67.4759H846.996V66.3766V166.412ZM1043.97 66.3766V166.412H1104.49V146.625H1064.88V66.3766H1043.97ZM1345.48 86.1638H1356.48C1377.39 86.1638 1386.19 96.0575 1386.19 116.944C1386.19 135.632 1376.29 147.724 1355.38 147.724H1345.48V86.1638ZM1325.67 166.412H1355.38C1377.39 166.412 1400.5 155.419 1406 129.036V103.752C1401.6 77.3695 1382.89 67.4759 1357.58 67.4759H1325.67V66.3766V166.412V166.412ZM437.647 94.9582C437.647 114.745 450.851 120.242 468.458 124.639C487.165 129.036 490.466 131.235 490.466 137.831C490.466 145.526 484.964 148.823 472.859 148.823C462.956 148.823 454.153 145.526 447.55 137.831L433.245 151.022C440.948 162.015 455.253 169.71 471.759 169.71C499.269 169.71 511.373 156.518 511.373 137.831C511.373 115.845 493.767 110.348 478.361 107.05C462.956 103.752 458.554 101.554 458.554 94.9582C458.554 90.561 461.855 86.1638 472.859 86.1638C481.663 86.1638 489.365 89.4617 495.968 96.0575L510.273 81.7667C500.369 71.8731 489.365 66.3766 473.96 66.3766C472.859 66.3766 471.759 66.3766 470.659 66.3766C451.952 66.3766 437.647 77.3695 437.647 94.9582ZM547.687 116.944C547.687 99.3553 554.289 85.0645 570.795 85.0645C587.301 85.0645 593.904 99.3553 593.904 116.944C593.904 134.533 587.301 148.823 570.795 148.823C554.289 148.823 547.687 134.533 547.687 116.944ZM526.779 116.944C526.779 147.724 543.285 168.611 569.695 168.611C597.205 168.611 613.711 147.724 613.711 116.944C613.711 86.1638 597.205 65.2773 569.695 65.2773C543.285 65.2773 526.779 86.1638 526.779 116.944ZM695.141 65.2773V122.44C695.141 138.93 687.438 148.823 674.233 148.823C661.028 148.823 653.325 138.93 653.325 122.44V66.3766H633.518V122.44C633.518 151.022 650.024 167.511 674.233 167.511C699.542 167.511 714.948 151.022 714.948 121.341V65.2773H695.141ZM944.932 116.944C944.932 148.823 962.538 168.611 988.948 168.611C1007.65 168.611 1018.66 159.816 1026.36 145.526L1009.86 135.632C1004.35 144.426 998.851 148.823 990.048 148.823C974.643 148.823 965.839 135.632 965.839 116.944C965.839 98.256 974.643 85.0645 988.948 85.0645C997.751 85.0645 1003.25 89.4617 1007.65 96.0575L1026.36 87.2631C1019.76 74.0716 1008.75 65.2773 990.048 65.2773C963.639 65.2773 944.932 86.1638 944.932 116.944ZM1134.2 116.944C1134.2 99.3553 1140.8 85.0645 1157.31 85.0645C1173.82 85.0645 1180.42 99.3553 1180.42 116.944C1180.42 134.533 1173.82 148.823 1157.31 148.823C1140.8 148.823 1134.2 134.533 1134.2 116.944ZM1113.29 116.944C1113.29 147.724 1129.8 168.611 1156.21 168.611C1183.72 168.611 1199.12 147.724 1199.12 116.944C1199.12 86.1638 1182.62 65.2773 1156.21 65.2773C1129.8 65.2773 1113.29 86.1638 1113.29 116.944ZM1280.55 65.2773V122.44C1280.55 138.93 1272.85 148.823 1259.65 148.823C1246.44 148.823 1238.74 138.93 1238.74 122.44V66.3766H1218.93V122.44C1218.93 151.022 1235.44 167.511 1259.65 167.511C1284.96 167.511 1300.36 151.022 1300.36 121.341V65.2773H1280.55ZM180.153 67.4759L177.952 143.327L180.153 179.604C180.153 181.802 182.353 184.001 184.554 184.001C186.755 184.001 188.956 181.802 188.956 179.604L191.157 143.327L188.956 66.3766C188.956 64.178 186.755 61.9794 184.554 61.9794C181.253 63.0787 180.153 64.178 180.153 67.4759ZM136.137 64.178L133.936 143.327L136.137 180.703C136.137 182.901 137.237 184.001 139.438 184.001C141.639 184.001 142.739 182.901 142.739 180.703L144.94 143.327L142.739 64.178C142.739 61.9794 141.639 60.8801 139.438 60.8801C137.237 60.8801 136.137 63.0787 136.137 64.178ZM164.747 64.178L162.546 143.327L164.747 180.703C164.747 182.901 166.948 185.1 169.149 185.1C171.349 185.1 173.55 182.901 173.55 180.703L175.751 143.327L173.55 64.178C173.55 61.9794 171.349 59.7809 169.149 59.7809C166.948 59.7809 164.747 61.9794 164.747 64.178ZM150.442 61.9794L148.241 143.327L150.442 180.703C150.442 182.901 151.542 184.001 153.743 184.001C155.944 184.001 157.044 182.901 157.044 180.703L159.245 143.327L157.044 61.9794C157.044 59.7809 154.843 58.6816 153.743 58.6816C152.643 58.6816 150.442 59.7809 150.442 61.9794ZM194.458 52.0858L192.257 143.327L194.458 179.604C194.458 181.802 196.659 184.001 198.859 184.001C201.06 184.001 203.261 181.802 203.261 179.604L205.462 143.327L203.261 52.0858C203.261 49.8872 201.06 47.6887 198.859 47.6887C196.659 47.6887 194.458 49.8872 194.458 52.0858ZM209.863 44.3908L207.663 143.327L209.863 179.604C209.863 181.802 212.064 184.001 214.265 184.001C216.466 184.001 218.667 181.802 218.667 179.604L220.867 143.327L218.667 44.3908C218.667 42.1922 216.466 39.9936 214.265 39.9936H213.165C210.964 39.9936 209.863 42.1922 209.863 44.3908ZM227.47 34.4972C224.169 35.5965 223.068 36.6958 223.068 39.9936V179.604C223.068 181.802 225.269 184.001 227.47 185.1H349.614C373.823 185.1 393.631 165.313 393.631 141.128C393.631 116.944 373.823 97.1567 349.614 97.1567C344.112 97.1567 337.51 98.256 333.108 100.455C329.807 60.8801 296.795 30.1 256.08 30.1C253.88 30.1 252.779 30.1 250.578 30.1C242.875 30.1 235.173 32.2986 227.47 34.4972Z" fill="white"/>
</mask>
<g mask="url(#mask1_1_14)">
<path d="M1406 30.1H36V185.1H1406V30.1Z" fill="url(#paint0_linear_1_14)"/>
</g>
</g>
</g>
<defs>
<linearGradient id="paint0_linear_1_14" x1="721.002" y1="-365.404" x2="721.002" y2="317.867" gradientUnits="userSpaceOnUse">
<stop stop-color="#F8A01D"/>
<stop offset="0.7128" stop-color="#F26E23"/>
<stop offset="1" stop-color="#EF5826"/>
</linearGradient>
<clipPath id="clip0_1_14">
<rect width="424" height="217" fill="white"/>
</clipPath>
</defs>
</svg>
